<?xml version="1.0" encoding="utf-8"?>
<!-- Generator: Adobe Illustrator 19.0.0, SVG Export Plug-In . SVG Version: 6.00 Build 0)  -->
<svg version="1.1" id="Layer_1" xmlns="http://www.w3.org/2000/svg" xmlns:xlink="http://www.w3.org/1999/xlink" x="0px" y="0px"
	 viewBox="0 0 205 165.4" style="enable-background:new 0 0 205 165.4;" xml:space="preserve">
<g id="XMLID_1_">
	<path id="XMLID_57_" d="M82.4,125l-11.9,11.9c-2.3,2.3-5.9,2.3-8.2,0l0,0l-16-16l-4.1-4.1l-16-16l-4.1-4.1L10.2,84.8
		c-2.3-2.3-2.3-5.9,0-8.2l11.9-11.9l4.1-4.1l16-16l4.1-4.1l11.9-11.9c2.3-2.3,5.9-2.3,8.2,0l11.9,11.9l-16,16l-4.1,4.1l-16,16
		l-4.1,4.1l4.1,4.1l16,16l4.1,4.1l16,16L82.4,125z"/>
	<path id="XMLID_28_" d="M98.4,60.6L86.5,72.5c-2.3,2.3-5.9,2.3-8.2,0L66.4,60.6l11.9-11.9c2.3-2.3,5.9-2.3,8.2,0L98.4,60.6z"/>
	<path id="XMLID_72_" d="M194.8,76.6c2.3,2.3,2.3,5.9,0,8.2l-11.9,11.9l-4.1,4.1l-32,32c-2.3,2.3-5.9,2.3-8.2,0l-11.9-11.9
		l20.1-20.1l16-16l4.1-4.1l-4.1-4.1l-16-16l-4.1-4.1l-4.1,4.1l-16,16l-4.1,4.1l-11.9,11.9c-2.3,2.3-5.9,2.3-8.2,0L86.5,80.7l16-16
		l4.1-4.1l16-16l4.1-4.1l11.9-11.9c2.3-2.3,5.9-2.3,8.2,0l11.9,11.9l4.1,4.1l16,16l4.1,4.1L194.8,76.6z"/>
	
		<rect id="XMLID_31_" x="125.5" y="75.2" transform="matrix(0.7071 -0.7071 0.7071 0.7071 -21.1265 122.102)" width="22.6" height="22.6"/>
</g>
</svg>
