<svg version="1.1" xmlns="http://www.w3.org/2000/svg" viewBox="0 0 205 165.4">
<rect width="205" height="165.4" rx="20" fill="#000"/>
<g>
	<path fill="#fff" d="M82.4,125l-11.9,11.9c-2.3,2.3-5.9,2.3-8.2,0l0,0l-16-16l-4.1-4.1l-16-16l-4.1-4.1L10.2,84.8
		c-2.3-2.3-2.3-5.9,0-8.2l11.9-11.9l4.1-4.1l16-16l4.1-4.1l11.9-11.9c2.3-2.3,5.9-2.3,8.2,0l11.9,11.9l-16,16l-4.1,4.1l-16,16
		l-4.1,4.1l4.1,4.1l16,16l4.1,4.1l16,16L82.4,125z"/>
	<path fill="#fff" d="M98.4,60.6L86.5,72.5c-2.3,2.3-5.9,2.3-8.2,0L66.4,60.6l11.9-11.9c2.3-2.3,5.9-2.3,8.2,0
		L98.4,60.6z"/>
	<path fill="#fff" d="M194.8,76.6c2.3,2.3,2.3,5.9,0,8.2l-11.9,11.9l-4.1,4.1l-32,32c-2.3,2.3-5.9,2.3-8.2,0
		l-11.9-11.9l20.1-20.1l16-16l4.1-4.1l-4.1-4.1l-16-16l-4.1-4.1l-4.1,4.1l-16,16l-4.1,4.1l-11.9,11.9c-2.3,2.3-5.9,2.3-8.2,0
		L86.5,80.7l16-16l4.1-4.1l16-16l4.1-4.1l11.9-11.9c2.3-2.3,5.9-2.3,8.2,0l11.9,11.9l4.1,4.1l16,16l4.1,4.1L194.8,76.6z"/>
	<rect x="125.5" y="75.2" transform="matrix(0.7071 -0.7071 0.7071 0.7071 -21.1265 122.102)" fill="#fff" width="22.6" height="22.6"/>
</g>
</svg>
